<svg width="32" height="32" xmlns="http://www.w3.org/2000/svg">
 <title/>

 <g>
  <title>background</title>
  <rect fill="none" id="canvas_background" height="402" width="582" y="-1" x="-1"/>
 </g>
 <g>
  <title fill="#ffffff">Layer 1</title>
  <path fill="#ffffff" id="svg_1" d="m24,3l-16,0a5,5 0 0 0 -5,5l0,16a5,5 0 0 0 5,5l16,0a5,5 0 0 0 5,-5l0,-16a5,5 0 0 0 -5,-5zm3,21a3,3 0 0 1 -3,3l-7,0l0,-9l4,0a1,1 0 0 0 0,-2l-4,0l0,-2a2,2 0 0 1 2,-2l2,0a1,1 0 0 0 0,-2l-2,0a4,4 0 0 0 -4,4l0,2l-3,0a1,1 0 0 0 0,2l3,0l0,9l-7,0a3,3 0 0 1 -3,-3l0,-16a3,3 0 0 1 3,-3l16,0a3,3 0 0 1 3,3l0,16z"/>
 </g>
</svg>