<svg width="32" height="32" xmlns="http://www.w3.org/2000/svg">
 <title/>

 <g>
  <title>background</title>
  <rect fill="none" id="canvas_background" height="402" width="582" y="-1" x="-1"/>
 </g>
 <g>
  <title fill="#ffffff">Layer 1</title>
  <path fill="#ffffff" id="svg_1" d="m27,5l-22,0a3,3 0 0 0 -3,3l0,16a3,3 0 0 0 3,3l22,0a3,3 0 0 0 3,-3l0,-16a3,3 0 0 0 -3,-3zm-4.63,2l-6.37,5.66l-6.37,-5.66l12.74,0zm1.63,18l-16,0l0,-11.41l7.34,6.41a1,1 0 0 0 1.32,0l7.34,-6.41l0,11.41zm4,0.23c0.03894,-2.52534 0.35707,-0.28413 -1,-0.23l-1,0l0,-13.62a1,1 0 0 0 -1.66,-0.75l-8.34,7.29l-8.34,-7.29a1,1 0 0 0 -1.66,0.75l0,13.62l-1,0a1,1 0 0 1 -1,-1l0,-16a1,1 0 0 1 1,-1l1.62,0l8.72,7.75a1,1 0 0 0 1.32,0l8.72,-7.75l1.62,0a1,1 0 0 1 1,1l0,16z"/>
 </g>
</svg>