<svg width="32" height="32" xmlns="http://www.w3.org/2000/svg">
 <title/>

 <g>
  <title>background</title>
  <rect fill="none" id="canvas_background" height="402" width="582" y="-1" x="-1"/>
 </g>
 <g>
  <title>Layer 1</title>
  <path fill="#ffffff" id="svg_1" d="m24,3l-16,0a5,5 0 0 0 -5,5l0,16a5,5 0 0 0 5,5l16,0a5,5 0 0 0 5,-5l0,-16a5,5 0 0 0 -5,-5zm3,21a3,3 0 0 1 -3,3l-16,0a3,3 0 0 1 -3,-3l0,-16a3,3 0 0 1 3,-3l16,0a3,3 0 0 1 3,3l0,16z"/>
  <path fill="#ffffff" id="svg_2" d="m11,14a1,1 0 0 0 -1,1l0,6a1,1 0 0 0 2,0l0,-6a1,1 0 0 0 -1,-1z"/>
  <path fill="#ffffff" id="svg_3" d="m19,13a4,4 0 0 0 -4,4l0,4a1,1 0 0 0 2,0l0,-4a2,2 0 0 1 4,0l0,4a1,1 0 0 0 2,0l0,-4a4,4 0 0 0 -4,-4z"/>
  <circle fill="#ffffff" id="svg_4" r="1" cy="11" cx="11"/>
 </g>
</svg>